{
	"asset":{
		"generator":"Khronos glTF Blender I/O v3.6.28",
		"version":"2.0"
	},
	"scene":0,
	"scenes":[
		{
			"name":"Scene",
			"nodes":[
				0
			]
		}
	],
	"nodes":[
		{
			"mesh":0,
			"name":"tea mug",
			"rotation":[
				0,
				-0.3077133893966675,
				0,
				0.9514791369438171
			],
			"translation":[
				0,
				1.1929947137832642,
				0
			]
		}
	],
	"materials":[
		{
			"doubleSided":true,
			"name":"teamug",
			"pbrMetallicRoughness":{
				"metallicFactor":0,
				"roughnessFactor":0.4000000059604645
			}
		}
	],
	"meshes":[
		{
			"name":"Cylinder",
			"primitives":[
				{
					"attributes":{
						"POSITION":0,
						"NORMAL":1,
						"TEXCOORD_0":2
					},
					"indices":3,
					"material":0
				}
			]
		}
	],
	"accessors":[
		{
			"bufferView":0,
			"componentType":5126,
			"count":32239,
			"max":[
				0.9935953617095947,
				0.9736323356628418,
				1.5327030420303345
			],
			"min":[
				-0.9935952425003052,
				-1.0000004768371582,
				-0.9935953617095947
			],
			"type":"VEC3"
		},
		{
			"bufferView":1,
			"componentType":5126,
			"count":32239,
			"type":"VEC3"
		},
		{
			"bufferView":2,
			"componentType":5126,
			"count":32239,
			"type":"VEC2"
		},
		{
			"bufferView":3,
			"componentType":5123,
			"count":177984,
			"type":"SCALAR"
		}
	],
	"bufferViews":[
		{
			"buffer":0,
			"byteLength":386868,
			"byteOffset":0,
			"target":34962
		},
		{
			"buffer":0,
			"byteLength":386868,
			"byteOffset":386868,
			"target":34962
		},
		{
			"buffer":0,
			"byteLength":257912,
			"byteOffset":773736,
			"target":34962
		},
		{
			"buffer":0,
			"byteLength":355968,
			"byteOffset":1031648,
			"target":34963
		}
	],
	"buffers":[
		{
			"byteLength":1387616,
			"uri":"teamug.bin"
		}
	]
}
